<mxfile host="Electron" modified="2024-06-06T12:18:45.849Z" agent="Mozilla/5.0 (X11; Linux x86_64) AppleWebKit/537.36 (KHTML, like Gecko) draw.io/24.4.0 Chrome/122.0.6261.156 Electron/29.4.0 Safari/537.36" etag="GUpzcvp9R0Bl50oVUaxc" version="24.3.1" type="device">
  <diagram name="Page-1" id="-wSlq7OUx_sQ-0NJnqKV">
    <mxGraphModel dx="4573" dy="969" grid="1" gridSize="10" guides="0" tooltips="1" connect="0" arrows="0" fold="1" page="1" pageScale="1" pageWidth="3300" pageHeight="4681" math="0" shadow="0">
      <root>
        <mxCell id="0" />
        <mxCell id="1" parent="0" />
        <mxCell id="4IDGQpQeDP0Xl2C5tdxJ-37" value="" style="rounded=0;whiteSpace=wrap;html=1;fontFamily=mono;fillColor=#f5f5f5;fontColor=#333333;strokeColor=#666666;" vertex="1" parent="1">
          <mxGeometry x="-680" width="1830" height="340" as="geometry" />
        </mxCell>
        <mxCell id="4IDGQpQeDP0Xl2C5tdxJ-31" value="" style="rounded=0;whiteSpace=wrap;html=1;fontFamily=mono;" vertex="1" parent="1">
          <mxGeometry x="-580" y="10" width="1720" height="310" as="geometry" />
        </mxCell>
        <mxCell id="4IDGQpQeDP0Xl2C5tdxJ-27" value="" style="rounded=0;whiteSpace=wrap;html=1;fontFamily=mono;fillColor=#f5f5f5;fontColor=#333333;strokeColor=#666666;" vertex="1" parent="1">
          <mxGeometry x="-340" y="20" width="1470" height="280" as="geometry" />
        </mxCell>
        <mxCell id="4IDGQpQeDP0Xl2C5tdxJ-26" value="pad_cpu_rst_b" style="endArrow=classic;html=1;rounded=0;fontFamily=mono;" edge="1" parent="1">
          <mxGeometry width="50" height="50" relative="1" as="geometry">
            <mxPoint x="-360" y="100" as="sourcePoint" />
            <mxPoint x="-230" y="110" as="targetPoint" />
            <Array as="points">
              <mxPoint x="-250" y="100" />
              <mxPoint x="-250" y="110" />
            </Array>
          </mxGeometry>
        </mxCell>
        <mxCell id="4IDGQpQeDP0Xl2C5tdxJ-23" value="" style="rounded=0;whiteSpace=wrap;html=1;fontFamily=mono;" vertex="1" parent="1">
          <mxGeometry x="-230" y="30" width="1350" height="250" as="geometry" />
        </mxCell>
        <mxCell id="4IDGQpQeDP0Xl2C5tdxJ-10" value="" style="rounded=0;whiteSpace=wrap;html=1;fontFamily=mono;fillColor=#f5f5f5;fontColor=#333333;strokeColor=#666666;" vertex="1" parent="1">
          <mxGeometry x="-110" y="40" width="1220" height="220" as="geometry" />
        </mxCell>
        <mxCell id="4IDGQpQeDP0Xl2C5tdxJ-1" value="" style="rounded=0;whiteSpace=wrap;html=1;fontFamily=mono;" vertex="1" parent="1">
          <mxGeometry x="10" y="80" width="230" height="80" as="geometry" />
        </mxCell>
        <mxCell id="4IDGQpQeDP0Xl2C5tdxJ-4" value="core0_rst_b" style="endArrow=classic;html=1;rounded=0;endFill=1;fontFamily=mono;" edge="1" parent="1" source="4IDGQpQeDP0Xl2C5tdxJ-15">
          <mxGeometry width="50" height="50" relative="1" as="geometry">
            <mxPoint x="139.99999999994043" y="110" as="sourcePoint" />
            <mxPoint x="250" y="110" as="targetPoint" />
          </mxGeometry>
        </mxCell>
        <mxCell id="4IDGQpQeDP0Xl2C5tdxJ-5" value="cpurst_b" style="endArrow=classic;html=1;rounded=0;endFill=1;fontFamily=mono;" edge="1" parent="1" source="4IDGQpQeDP0Xl2C5tdxJ-14">
          <mxGeometry width="50" height="50" relative="1" as="geometry">
            <mxPoint x="139.99999999994043" y="90" as="sourcePoint" />
            <mxPoint x="250" y="90" as="targetPoint" />
          </mxGeometry>
        </mxCell>
        <mxCell id="4IDGQpQeDP0Xl2C5tdxJ-6" value="pad_core0_rst_b" style="endArrow=classic;html=1;rounded=0;fontFamily=mono;" edge="1" parent="1" target="4IDGQpQeDP0Xl2C5tdxJ-15">
          <mxGeometry width="50" height="50" relative="1" as="geometry">
            <mxPoint y="110" as="sourcePoint" />
            <mxPoint x="130.00000000005957" y="110" as="targetPoint" />
          </mxGeometry>
        </mxCell>
        <mxCell id="4IDGQpQeDP0Xl2C5tdxJ-8" value="pad_cpu_rst_b" style="endArrow=classic;html=1;rounded=0;fontFamily=mono;" edge="1" target="4IDGQpQeDP0Xl2C5tdxJ-14" parent="1">
          <mxGeometry width="50" height="50" relative="1" as="geometry">
            <mxPoint y="90" as="sourcePoint" />
            <mxPoint x="130.00000000005957" y="90" as="targetPoint" />
          </mxGeometry>
        </mxCell>
        <mxCell id="4IDGQpQeDP0Xl2C5tdxJ-11" value="openC910 x_cpu_top" style="text;html=1;align=right;verticalAlign=middle;whiteSpace=wrap;rounded=0;fontFamily=mono;" vertex="1" parent="1">
          <mxGeometry x="970" y="240" width="140" height="20" as="geometry" />
        </mxCell>
        <mxCell id="4IDGQpQeDP0Xl2C5tdxJ-13" value="&lt;span style=&quot;text-wrap: nowrap;&quot;&gt;ct_mp_rst_top&amp;nbsp;x_ct_mp_rst_top&lt;/span&gt;" style="text;html=1;align=right;verticalAlign=middle;whiteSpace=wrap;rounded=0;fontFamily=mono;" vertex="1" parent="1">
          <mxGeometry x="20" y="140" width="220" height="20" as="geometry" />
        </mxCell>
        <mxCell id="4IDGQpQeDP0Xl2C5tdxJ-14" value="" style="ellipse;shape=cloud;whiteSpace=wrap;html=1;fontFamily=mono;" vertex="1" parent="1">
          <mxGeometry x="130" y="80" width="10" height="20" as="geometry" />
        </mxCell>
        <mxCell id="4IDGQpQeDP0Xl2C5tdxJ-15" value="" style="ellipse;shape=cloud;whiteSpace=wrap;html=1;fontFamily=mono;" vertex="1" parent="1">
          <mxGeometry x="130" y="100" width="10" height="20" as="geometry" />
        </mxCell>
        <mxCell id="4IDGQpQeDP0Xl2C5tdxJ-16" value="pad_cpu_rst_b" style="endArrow=classic;html=1;rounded=0;fontFamily=mono;" edge="1" parent="1">
          <mxGeometry width="50" height="50" relative="1" as="geometry">
            <mxPoint x="-120" y="90" as="sourcePoint" />
            <mxPoint x="10" y="90" as="targetPoint" />
          </mxGeometry>
        </mxCell>
        <mxCell id="4IDGQpQeDP0Xl2C5tdxJ-17" value="pad_core0_rst_b" style="endArrow=classic;html=1;rounded=0;fontFamily=mono;" edge="1" parent="1">
          <mxGeometry width="50" height="50" relative="1" as="geometry">
            <mxPoint x="-120" y="110" as="sourcePoint" />
            <mxPoint x="10" y="110" as="targetPoint" />
          </mxGeometry>
        </mxCell>
        <mxCell id="4IDGQpQeDP0Xl2C5tdxJ-21" value="pad_cpu_rst_b" style="endArrow=classic;html=1;rounded=0;fontFamily=mono;" edge="1" parent="1">
          <mxGeometry width="50" height="50" relative="1" as="geometry">
            <mxPoint x="-240" y="90" as="sourcePoint" />
            <mxPoint x="-110" y="90" as="targetPoint" />
          </mxGeometry>
        </mxCell>
        <mxCell id="4IDGQpQeDP0Xl2C5tdxJ-22" value="pad_core0_rst_b" style="endArrow=classic;html=1;rounded=0;fontFamily=mono;" edge="1" parent="1">
          <mxGeometry width="50" height="50" relative="1" as="geometry">
            <mxPoint x="-240" y="110" as="sourcePoint" />
            <mxPoint x="-110" y="110" as="targetPoint" />
          </mxGeometry>
        </mxCell>
        <mxCell id="4IDGQpQeDP0Xl2C5tdxJ-24" value="cpu_sub_system_axi&amp;nbsp;x_rv_integration_platform" style="text;html=1;align=right;verticalAlign=middle;whiteSpace=wrap;rounded=0;fontFamily=mono;" vertex="1" parent="1">
          <mxGeometry x="780" y="260" width="340" height="20" as="geometry" />
        </mxCell>
        <mxCell id="4IDGQpQeDP0Xl2C5tdxJ-25" value="pad_cpu_rst_b" style="endArrow=classic;html=1;rounded=0;fontFamily=mono;" edge="1" parent="1">
          <mxGeometry width="50" height="50" relative="1" as="geometry">
            <mxPoint x="-360" y="100" as="sourcePoint" />
            <mxPoint x="-230" y="90" as="targetPoint" />
            <Array as="points">
              <mxPoint x="-250" y="100" />
              <mxPoint x="-250" y="90" />
            </Array>
          </mxGeometry>
        </mxCell>
        <mxCell id="4IDGQpQeDP0Xl2C5tdxJ-28" value="cpu_sub_system_axi&amp;nbsp;x_cpu_sub_system_axi" style="text;html=1;align=right;verticalAlign=middle;whiteSpace=wrap;rounded=0;fontFamily=mono;" vertex="1" parent="1">
          <mxGeometry x="790" y="280" width="340" height="20" as="geometry" />
        </mxCell>
        <mxCell id="4IDGQpQeDP0Xl2C5tdxJ-29" value="pad_cpu_rst_b" style="endArrow=classic;html=1;rounded=0;fontFamily=mono;" edge="1" parent="1">
          <mxGeometry width="50" height="50" relative="1" as="geometry">
            <mxPoint x="-470" y="100" as="sourcePoint" />
            <mxPoint x="-340" y="100" as="targetPoint" />
          </mxGeometry>
        </mxCell>
        <mxCell id="4IDGQpQeDP0Xl2C5tdxJ-30" value="i_pad_rst_b" style="endArrow=classic;html=1;rounded=0;fontFamily=mono;" edge="1" parent="1">
          <mxGeometry width="50" height="50" relative="1" as="geometry">
            <mxPoint x="-590" y="100" as="sourcePoint" />
            <mxPoint x="-460" y="100" as="targetPoint" />
          </mxGeometry>
        </mxCell>
        <mxCell id="4IDGQpQeDP0Xl2C5tdxJ-32" value="smart_run/logical/common/soc.v: soc x_soc" style="text;html=1;align=right;verticalAlign=middle;whiteSpace=wrap;rounded=0;fontFamily=mono;" vertex="1" parent="1">
          <mxGeometry x="800" y="300" width="340" height="20" as="geometry" />
        </mxCell>
        <mxCell id="4IDGQpQeDP0Xl2C5tdxJ-33" value="" style="endArrow=classic;html=1;rounded=0;fontFamily=mono;" edge="1" parent="1" source="4IDGQpQeDP0Xl2C5tdxJ-35">
          <mxGeometry width="50" height="50" relative="1" as="geometry">
            <mxPoint x="-640" y="100" as="sourcePoint" />
            <mxPoint x="-580" y="100" as="targetPoint" />
          </mxGeometry>
        </mxCell>
        <mxCell id="4IDGQpQeDP0Xl2C5tdxJ-35" value="&amp;nbsp;rst_b" style="rounded=0;whiteSpace=wrap;html=1;fontFamily=mono;" vertex="1" parent="1">
          <mxGeometry x="-660" y="90" width="50" height="20" as="geometry" />
        </mxCell>
        <mxCell id="4IDGQpQeDP0Xl2C5tdxJ-36" value="" style="triangle;whiteSpace=wrap;html=1;fontFamily=mono;" vertex="1" parent="1">
          <mxGeometry x="-660" y="90" width="10" height="20" as="geometry" />
        </mxCell>
        <mxCell id="4IDGQpQeDP0Xl2C5tdxJ-38" value="smart_run/logical/tb/tb_verilator.v: top" style="text;html=1;align=right;verticalAlign=middle;whiteSpace=wrap;rounded=0;fontFamily=mono;" vertex="1" parent="1">
          <mxGeometry x="810" y="320" width="340" height="20" as="geometry" />
        </mxCell>
        <mxCell id="4IDGQpQeDP0Xl2C5tdxJ-39" value="" style="rounded=0;whiteSpace=wrap;html=1;fontFamily=mono;fillColor=#d5e8d4;strokeColor=#82b366;" vertex="1" parent="1">
          <mxGeometry x="350" y="50" width="750" height="130" as="geometry" />
        </mxCell>
        <mxCell id="4IDGQpQeDP0Xl2C5tdxJ-41" value="ct_top x_ct_top_0" style="text;html=1;align=right;verticalAlign=middle;whiteSpace=wrap;rounded=0;fontFamily=mono;" vertex="1" parent="1">
          <mxGeometry x="960" y="160" width="140" height="20" as="geometry" />
        </mxCell>
        <mxCell id="4IDGQpQeDP0Xl2C5tdxJ-42" value="" style="rounded=0;whiteSpace=wrap;html=1;fontFamily=mono;fillColor=#d5e8d4;strokeColor=#82b366;" vertex="1" parent="1">
          <mxGeometry x="350" y="190" width="750" height="50" as="geometry" />
        </mxCell>
        <mxCell id="4IDGQpQeDP0Xl2C5tdxJ-43" value="ct_top x_ct_top_1" style="text;html=1;align=right;verticalAlign=middle;whiteSpace=wrap;rounded=0;fontFamily=mono;" vertex="1" parent="1">
          <mxGeometry x="960" y="220" width="140" height="20" as="geometry" />
        </mxCell>
        <mxCell id="4IDGQpQeDP0Xl2C5tdxJ-44" value="pad_core_rst_b" style="endArrow=classic;html=1;rounded=0;endFill=1;fontFamily=mono;" edge="1" parent="1">
          <mxGeometry width="50" height="50" relative="1" as="geometry">
            <mxPoint x="340" y="110" as="sourcePoint" />
            <mxPoint x="460" y="110" as="targetPoint" />
          </mxGeometry>
        </mxCell>
        <mxCell id="4IDGQpQeDP0Xl2C5tdxJ-45" value="pad_cpu_rst_b" style="endArrow=classic;html=1;rounded=0;endFill=1;fontFamily=mono;" edge="1" parent="1">
          <mxGeometry width="50" height="50" relative="1" as="geometry">
            <mxPoint x="340" y="90" as="sourcePoint" />
            <mxPoint x="460" y="90" as="targetPoint" />
          </mxGeometry>
        </mxCell>
        <mxCell id="4IDGQpQeDP0Xl2C5tdxJ-46" value="" style="rounded=0;whiteSpace=wrap;html=1;fontFamily=mono;fillColor=#ffe6cc;strokeColor=#d79b00;" vertex="1" parent="1">
          <mxGeometry x="460" y="70" width="240" height="80" as="geometry" />
        </mxCell>
        <mxCell id="4IDGQpQeDP0Xl2C5tdxJ-47" value="pad_cpu_rst_b" style="endArrow=classic;html=1;rounded=0;endFill=1;fontFamily=mono;" edge="1" parent="1">
          <mxGeometry width="50" height="50" relative="1" as="geometry">
            <mxPoint x="450" y="90" as="sourcePoint" />
            <mxPoint x="570" y="90" as="targetPoint" />
          </mxGeometry>
        </mxCell>
        <mxCell id="4IDGQpQeDP0Xl2C5tdxJ-48" value="pad_core_rst_b" style="endArrow=classic;html=1;rounded=0;endFill=1;fontFamily=mono;" edge="1" parent="1">
          <mxGeometry width="50" height="50" relative="1" as="geometry">
            <mxPoint x="450" y="110" as="sourcePoint" />
            <mxPoint x="570" y="110" as="targetPoint" />
          </mxGeometry>
        </mxCell>
        <mxCell id="4IDGQpQeDP0Xl2C5tdxJ-49" value="ct_rst_top&amp;nbsp; x_ct_rst_top" style="text;html=1;align=right;verticalAlign=middle;whiteSpace=wrap;rounded=0;fontFamily=mono;" vertex="1" parent="1">
          <mxGeometry x="510" y="130" width="190" height="20" as="geometry" />
        </mxCell>
        <mxCell id="4IDGQpQeDP0Xl2C5tdxJ-50" value="" style="rounded=0;whiteSpace=wrap;html=1;" vertex="1" parent="1">
          <mxGeometry x="570" y="80" width="20" height="40" as="geometry" />
        </mxCell>
        <mxCell id="4IDGQpQeDP0Xl2C5tdxJ-51" value="" style="triangle;whiteSpace=wrap;html=1;" vertex="1" parent="1">
          <mxGeometry x="570" y="80" width="10" height="40" as="geometry" />
        </mxCell>
        <mxCell id="4IDGQpQeDP0Xl2C5tdxJ-53" value="" style="rounded=0;whiteSpace=wrap;html=1;" vertex="1" parent="1">
          <mxGeometry x="590" y="80" width="20" height="40" as="geometry" />
        </mxCell>
        <mxCell id="4IDGQpQeDP0Xl2C5tdxJ-52" value="" style="triangle;whiteSpace=wrap;html=1;" vertex="1" parent="1">
          <mxGeometry x="590" y="80" width="10" height="40" as="geometry" />
        </mxCell>
        <mxCell id="4IDGQpQeDP0Xl2C5tdxJ-55" value="ifu_rst_b" style="endArrow=classic;html=1;rounded=0;endFill=1;fontFamily=mono;" edge="1" parent="1">
          <mxGeometry width="50" height="50" relative="1" as="geometry">
            <mxPoint x="610" y="100" as="sourcePoint" />
            <mxPoint x="710" y="100" as="targetPoint" />
          </mxGeometry>
        </mxCell>
        <mxCell id="4IDGQpQeDP0Xl2C5tdxJ-56" value="" style="rounded=0;whiteSpace=wrap;html=1;fontFamily=mono;fillColor=#f8cecc;strokeColor=#b85450;" vertex="1" parent="1">
          <mxGeometry x="800" y="60" width="290" height="100" as="geometry" />
        </mxCell>
        <mxCell id="4IDGQpQeDP0Xl2C5tdxJ-57" value="ct_core x_ct_core" style="text;html=1;align=right;verticalAlign=middle;whiteSpace=wrap;rounded=0;fontFamily=mono;" vertex="1" parent="1">
          <mxGeometry x="940" y="140" width="150" height="20" as="geometry" />
        </mxCell>
        <mxCell id="4IDGQpQeDP0Xl2C5tdxJ-58" value="ifu_rst_b" style="endArrow=classic;html=1;rounded=0;endFill=1;fontFamily=mono;" edge="1" parent="1">
          <mxGeometry width="50" height="50" relative="1" as="geometry">
            <mxPoint x="790" y="100" as="sourcePoint" />
            <mxPoint x="890" y="100" as="targetPoint" />
          </mxGeometry>
        </mxCell>
        <mxCell id="4IDGQpQeDP0Xl2C5tdxJ-59" value="" style="rounded=0;whiteSpace=wrap;html=1;fontFamily=mono;fillColor=#e1d5e7;strokeColor=#9673a6;" vertex="1" parent="1">
          <mxGeometry x="890" y="70" width="190" height="70" as="geometry" />
        </mxCell>
        <mxCell id="4IDGQpQeDP0Xl2C5tdxJ-60" value="ct_ifu_top x_ct_ifu_top" style="text;html=1;align=right;verticalAlign=middle;whiteSpace=wrap;rounded=0;fontFamily=mono;" vertex="1" parent="1">
          <mxGeometry x="900" y="120" width="180" height="20" as="geometry" />
        </mxCell>
        <mxCell id="4IDGQpQeDP0Xl2C5tdxJ-62" value="cpurst_b" style="endArrow=classic;html=1;rounded=0;endFill=1;fontFamily=mono;" edge="1" parent="1">
          <mxGeometry width="50" height="50" relative="1" as="geometry">
            <mxPoint x="880" y="100" as="sourcePoint" />
            <mxPoint x="980" y="100" as="targetPoint" />
          </mxGeometry>
        </mxCell>
        <mxCell id="4IDGQpQeDP0Xl2C5tdxJ-63" value="cpurst_b" style="endArrow=classic;html=1;rounded=0;endFill=1;fontFamily=mono;" edge="1" parent="1">
          <mxGeometry width="50" height="50" relative="1" as="geometry">
            <mxPoint x="240" y="90" as="sourcePoint" />
            <mxPoint x="350" y="90" as="targetPoint" />
          </mxGeometry>
        </mxCell>
        <mxCell id="4IDGQpQeDP0Xl2C5tdxJ-64" value="core0_rst_b" style="endArrow=classic;html=1;rounded=0;endFill=1;fontFamily=mono;" edge="1" parent="1">
          <mxGeometry width="50" height="50" relative="1" as="geometry">
            <mxPoint x="240" y="110" as="sourcePoint" />
            <mxPoint x="350" y="110" as="targetPoint" />
          </mxGeometry>
        </mxCell>
        <mxCell id="4IDGQpQeDP0Xl2C5tdxJ-65" value="ifu_rst_b" style="endArrow=classic;html=1;rounded=0;endFill=1;fontFamily=mono;" edge="1" parent="1">
          <mxGeometry width="50" height="50" relative="1" as="geometry">
            <mxPoint x="700" y="100" as="sourcePoint" />
            <mxPoint x="800" y="100" as="targetPoint" />
          </mxGeometry>
        </mxCell>
        <mxCell id="4IDGQpQeDP0Xl2C5tdxJ-66" value="&lt;b&gt;&amp;nbsp; 初始化PC&lt;/b&gt;" style="rounded=0;whiteSpace=wrap;html=1;strokeWidth=2;fillColor=#e51400;strokeColor=#B20000;fontColor=#ffffff;" vertex="1" parent="1">
          <mxGeometry x="980" y="90" width="70" height="20" as="geometry" />
        </mxCell>
        <mxCell id="4IDGQpQeDP0Xl2C5tdxJ-67" value="" style="triangle;whiteSpace=wrap;html=1;strokeWidth=3;fillColor=#e51400;fontColor=#ffffff;strokeColor=#B20000;" vertex="1" parent="1">
          <mxGeometry x="980" y="90" width="10" height="20" as="geometry" />
        </mxCell>
      </root>
    </mxGraphModel>
  </diagram>
</mxfile>
